# xmcd CD database file
#
# Track frame offsets:
#	150
#	6017
#	18691
#	31289
#	46788
#	54646
#	68727
#	84747
#	105385
#	120184
#	132665
#
# Disc length: 1947 seconds
#
# Revision: 3
# Processed by: cddbd v1.5.2PL0 Copyright (c) Steve Scherf et al.
# Submitted via: CDex 1.51
#
DISCID=8707990b
DTITLE=At The Drive-In - Acrobatic Tenement
DYEAR=1996
DGENRE=Hardcore
TTITLE0=Star Slight
TTITLE1=Schaffino
TTITLE2=Ebroglio
TTITLE3=Initiation
TTITLE4=Communication Drive-In
TTITLE5=Skips on the Record
TTITLE6=Paid Vacation Time
TTITLE7=Ticklish
TTITLE8=Blue Tag
TTITLE9=Coating of Arms
TTITLE10=Porfirio Diaz
EXTD=YEAR: 1996
EXTT0=
EXTT1=
EXTT2=
EXTT3=
EXTT4=
EXTT5=
EXTT6=
EXTT7=
EXTT8=
EXTT9=
EXTT10=
PLAYORDER=
